<svg xmlns="http://www.w3.org/2000/svg" viewBox="0 0 112 92"><defs><style>.a{fill:#fbb03b;opacity:0;}.b{fill:#f4f4f4;}</style></defs><title>logo</title><rect class="a" width="112" height="92"/><path class="b" d="M444.1,348.8a18.6,18.6,0,0,1-4.2,11.7h-2.3a16.6,16.6,0,1,0-28.5-11.7,17,17,0,0,0,4.8,11.7h-2.3a18.6,18.6,0,0,1-4.2-11.7,18.4,18.4,0,0,1,36.7,0Z" transform="translate(-369.8 -297.2)"/><path class="b" d="M481.8,360.5H440.7c.6-.9,1.2-1.8,1.7-2.7l9.1,1.8-7.6-5.2h9.2l-8.5-3.5h0l9.1-1.8h0l-9.1-1.8h0l8.5-3.5h-9.2l7.6-5.2-9,1.8h0l6.4-6.5-8.4,3.5h-.1l5.1-7.6-7.6,5h-.1l3.5-8.5-6.5,6.5h-.1l1.7-9-5,7.6-.2.2v-9.3l-3.5,8.4h-.1l-1.8-9-1.8,9h-.1l-3.6-8.4v9.1l-5.1-7.6,1.8,9h-.1l-6.5-6.5,3.5,8.5h-.1l-7.6-5,5,7.6h0l-8.5-3.5,6.5,6.5a.1.1,0,0,0-.1.1l-9-1.8,7.6,5.2h-9.2l8.5,3.5h0l-9,1.8h0l9,1.8h0l-8.5,3.5h9.3l-7.7,5.2,9.1-1.8a21.1,21.1,0,0,0,1.8,2.7H369.8s26.2-48.8,56-48.8S481.8,360.5,481.8,360.5Z" transform="translate(-369.8 -297.2)"/><path class="b" d="M423.9,330h0Zm7.3.7v.2l.2-.2Zm-3.6-.7h0Zm10.2,4.2h0Zm4.7,5.7h0Zm2,10.9h0Zm.1-3.8h0Zm-.8,7.4h0Zm-23.6-23.7v0ZM406.9,347h0Zm0,3.7h0Zm.8,3.7Zm6.1-20.2h0Z" transform="translate(-369.8 -297.2)"/><path class="b" d="M434.7,374.1a.8.8,0,0,1-.8.7h-3c-.3,0-.6-.4-.6-.7a.5.5,0,0,1,.6-.6h.7c.1,0,.2,0,.2-1v-3.3c0-1.1-.1-1.1-.2-1.1h-.7a.5.5,0,0,1-.6-.6c0-.4.2-.7.6-.7h1.8c.1,0,.5.1.5.8v5.4c0,.2.1.4.3.4h.2c.1,0,.2-.1.4,0h.4A.8.8,0,0,1,434.7,374.1Z" transform="translate(-369.8 -297.2)"/><path class="b" d="M433.3,365.5a1.1,1.1,0,0,1-1,1,1,1,0,1,1,0-2A1.1,1.1,0,0,1,433.3,365.5Z" transform="translate(-369.8 -297.2)"/><path class="b" d="M442.3,368.9c0,.8-.4,1.7-1.4,1.7a.9.9,0,0,1-.9-.9.7.7,0,0,1,.7-.7h.1v-.2a1,1,0,0,0-1.1-.9c-.8,0-1.7.3-1.7,2.6v2c0,1,.2,1,.3,1h.7a.5.5,0,0,1,.6.6.8.8,0,0,1-.7.7h-3.1c-.3,0-.8-.3-.8-.7s.3-.6.7-.6h.6c.2,0,.3,0,.3-1v-3.3c0-1.1-.1-1.1-.3-1.1h-.8c-.4,0-.7-.2-.7-.6s.5-.7.8-.7h1.7a.5.5,0,0,1,.4.2c.1.1.1.2.1.5a2.5,2.5,0,0,1,2-.9A2.4,2.4,0,0,1,442.3,368.9Z" transform="translate(-369.8 -297.2)"/><path class="b" d="M445.3,365.5a1,1,0,1,1-1-1A1.1,1.1,0,0,1,445.3,365.5Z" transform="translate(-369.8 -297.2)"/><path class="b" d="M446.7,374.1a.8.8,0,0,1-.8.7h-3c-.3,0-.6-.4-.6-.7a.5.5,0,0,1,.6-.6h.7c.1,0,.3,0,.3-1v-3.3c0-1.1-.2-1.1-.3-1.1h-.7a.5.5,0,0,1-.6-.6c0-.4.2-.7.6-.7h1.8c.2,0,.6.1.6.8v5.4c0,.2,0,.4.2.4h.2c.1,0,.2-.1.4,0h.4A.8.8,0,0,1,446.7,374.1Z" transform="translate(-369.8 -297.2)"/><path class="b" d="M456.5,374.1a.7.7,0,0,1-.8.7h-3a.7.7,0,0,1-.8-.7c0-.4.3-.6.7-.6h.6c.2,0,.3-.1.3-1.1v-2.2a3.2,3.2,0,0,0-.2-1.6,1.7,1.7,0,0,0-1.5-.7,1.8,1.8,0,0,0-1.6.8c-.2.2-.4.5-.4,1.9v1.8c0,.9.1,1,.3,1h.7a.5.5,0,0,1,.6.6.7.7,0,0,1-.7.7h-3.1a.7.7,0,0,1-.7-.7.5.5,0,0,1,.6-.6h.7c.2,0,.2-.1.2-1v-3.3c0-1-.1-1.1-.2-1.1h-.7a.5.5,0,0,1-.6-.6c0-.3.3-.7.6-.7h1.7c.4,0,.5.3.5.7a3.4,3.4,0,0,1,2.3-.9,3.1,3.1,0,0,1,2.2.9,2.5,2.5,0,0,1,.7,2.2v2.7c0,.9.1,1.1.3,1.1h.7A.6.6,0,0,1,456.5,374.1Z" transform="translate(-369.8 -297.2)"/><path class="b" d="M462.9,371.4c-.5,0-.6.4-.7.7h0a1.7,1.7,0,0,1-1.8,1.3,1.9,1.9,0,0,1-1.5-.6,2.7,2.7,0,0,1-.7-2h4.7c.8,0,.9-.1.9-.9a3.4,3.4,0,0,0-3.5-3.5,3.2,3.2,0,0,0-2.7,1.4,4.4,4.4,0,0,0-.9,2.9c0,2.4,1.4,4,3.6,4a3.9,3.9,0,0,0,2.4-.9,2.4,2.4,0,0,0,.9-1.8A.7.7,0,0,0,462.9,371.4Zm-2.5-3.6a1.8,1.8,0,0,1,1.9,1.8h-4A2.1,2.1,0,0,1,460.4,367.8Z" transform="translate(-369.8 -297.2)"/><path class="b" d="M470.9,367.7a3.5,3.5,0,0,0-2.8-1.2c-2.2,0-3.6,1.7-3.6,4.2s1.4,4.1,3.6,4.1,3.7-1.7,3.7-4.2A4.6,4.6,0,0,0,470.9,367.7Zm-2.8,5.8c-2,0-2.1-2.2-2.1-2.9a3.8,3.8,0,0,1,.5-1.9,1.8,1.8,0,0,1,1.7-.9,1.7,1.7,0,0,1,1.6.8,3.9,3.9,0,0,1,.5,2C470.3,371.4,470.1,373.5,468.1,373.5Z" transform="translate(-369.8 -297.2)"/><path class="b" d="M479.2,372.1c0,1.7-1.6,2.5-3.1,2.5a3.9,3.9,0,0,1-2-.5c0,.2-.1.4-.2.4a.5.5,0,0,1-.4.3c-.5,0-.7-.3-.7-.8v-2.4a.6.6,0,1,1,1.2,0h0c.1.8.1.9.4,1.1a2.8,2.8,0,0,0,1.8.6,1.8,1.8,0,0,0,1.1-.3,1.2,1.2,0,0,0,.4-.9c0-.7-.7-.9-1.4-1s-3.3-.4-3.3-2.3,1.5-2.5,3-2.5a2.4,2.4,0,0,1,1.5.4l.2-.3a.5.5,0,0,1,.4-.2c.4,0,.7.2.7.6v2.2c0,.4-.3.6-.7.6s-.6-.1-.6-.8,0-.6-.3-.7a2.4,2.4,0,0,0-1.2-.5c-.6,0-1.5.3-1.5,1.1s.2.8,1.6,1S479.2,370.5,479.2,372.1Z" transform="translate(-369.8 -297.2)"/><path class="b" d="M383.8,371.8c0,.4-.3.6-.7.6h-2.9a.7.7,0,0,1-.7-.6.6.6,0,0,1,.6-.6h.7c.1,0,.2-.1.2-1v-1.6a8.1,8.1,0,0,0-.1-1.6,1.4,1.4,0,0,0-1.4-1,2.1,2.1,0,0,0-1.6.7,3.1,3.1,0,0,0-.3,1.7v1.8c0,1,.1,1,.3,1h.6a.6.6,0,0,1,.6.6c0,.4-.3.6-.7.6h-2.9a.7.7,0,0,1-.7-.6.6.6,0,0,1,.6-.6h.6c.2,0,.3-.1.3-1v-5.6c0-1-.2-1-.3-1h-.6a.6.6,0,0,1-.6-.6c0-.4.3-.6.7-.6h1.6c.5,0,.5.4.5.8v2.2a2.9,2.9,0,0,1,2-.7,3.7,3.7,0,0,1,2,.7,2.7,2.7,0,0,1,.7,2v2.7c0,1,.2,1,.3,1h.6A.6.6,0,0,1,383.8,371.8Z" transform="translate(-369.8 -297.2)"/><path class="b" d="M390,366a2.9,2.9,0,0,0-2.6-1.1c-2,0-3.4,1.5-3.4,3.9s1.3,3.8,3.4,3.8,3.5-1.5,3.5-3.9A4.2,4.2,0,0,0,390,366Zm-2.6,5.4c-1.8,0-2-2-2-2.7a3.1,3.1,0,0,1,.5-1.7,1.6,1.6,0,0,1,1.6-.9,1.7,1.7,0,0,1,1.5.7,3.8,3.8,0,0,1,.5,1.9C389.5,369.5,389.3,371.4,387.4,371.4Z" transform="translate(-369.8 -297.2)"/><path class="b" d="M396.7,369.4c0,1.6-.2,3.1-2.3,3.1a1.8,1.8,0,0,1-1.7-.9,3.8,3.8,0,0,1-.3-1.9v-3c0-.4,0-.4-.3-.4s-1,0-1-.6a.7.7,0,0,1,.7-.6h.6v-1.4c0-.3,0-.9.7-.9s.6.6.6.8V365h1.5c.6,0,.8.2.8.6s-.3.6-.9.6h-1.4v3.3c0,1.2.3,1.5.9,1.5s.8-.4.8-1.3v-.4c0-.5.1-1,.7-1S396.7,368.9,396.7,369.4Z" transform="translate(-369.8 -297.2)"/><path class="b" d="M402.9,369.5c-.4,0-.5.4-.6.6h0a1.6,1.6,0,0,1-1.7,1.2,2.5,2.5,0,0,1-1.5-.5,2.8,2.8,0,0,1-.6-1.8H403c.7,0,.8-.2.8-.9a3.1,3.1,0,0,0-3.3-3.3,3.7,3.7,0,0,0-2.6,1.2,4.9,4.9,0,0,0-.8,2.8c0,2.3,1.3,3.7,3.4,3.7a3.6,3.6,0,0,0,2.3-.8,2.7,2.7,0,0,0,.8-1.7A.7.7,0,0,0,402.9,369.5Zm-2.3-3.4a1.6,1.6,0,0,1,1.7,1.7h-3.7A2,2,0,0,1,400.6,366.1Z" transform="translate(-369.8 -297.2)"/><path class="b" d="M408.6,371.8a.7.7,0,0,1-.7.6H405a.7.7,0,0,1-.7-.6.6.6,0,0,1,.6-.6h.6c.2,0,.3-.2.3-1v-5.6c0-1-.2-1-.3-1h-.7a.5.5,0,0,1-.6-.6c0-.3.3-.6.8-.6h1.6c.5,0,.5.4.5.8v6.9c0,1,.2,1,.3,1h.6A.6.6,0,0,1,408.6,371.8Z" transform="translate(-369.8 -297.2)"/><path class="b" d="M438,350.4a12.5,12.5,0,0,0-2.4-7.6,10,10,0,0,0-13-1.1c0-1.1-.6-1.5-1.3-1.5h-5.8a2.1,2.1,0,0,0-2.3,1.9,1.7,1.7,0,0,0,1.8,1.7c.7,0,1.5-.3,2.3-.3s1.6,1.3,1.6,4.4v19.2c0,3.3-.4,4.3-1.6,4.3s-1.6-.3-2.3-.3a1.7,1.7,0,0,0-1.8,1.7,2.1,2.1,0,0,0,2.3,2h10.7a2.1,2.1,0,0,0,2.3-2,1.6,1.6,0,0,0-1.7-1.7c-.8,0-1.5.3-2.4.3s-1.5-.7-1.5-4.2v-7.7a9.1,9.1,0,0,0,5.4,1.7C434.1,361.2,438,356.9,438,350.4Zm-14.7,2.8a12.7,12.7,0,0,1-.3-2.8,16.4,16.4,0,0,1,.2-2.2,10.8,10.8,0,0,1,1-2.7,4.6,4.6,0,0,1,4.4-2.3,4.7,4.7,0,0,1,4.2,2,9.6,9.6,0,0,1,1.3,5.1c0,2.2-.6,7.5-5.7,7.5C425,357.8,423.8,355.3,423.3,353.2Z" transform="translate(-369.8 -297.2)"/><path class="b" d="M444.1,348.8a18.6,18.6,0,0,1-4.2,11.7h-2.3a16.6,16.6,0,1,0-28.5-11.7,17,17,0,0,0,4.8,11.7h-2.3a18.6,18.6,0,0,1-4.2-11.7,18.4,18.4,0,0,1,36.7,0Z" transform="translate(-369.8 -297.2)"/><path class="b" d="M481.8,360.5H440.7c.6-.9,1.2-1.8,1.7-2.7l9.1,1.8-7.6-5.2h9.2l-8.5-3.5h0l9.1-1.8h0l-9.1-1.8h0l8.5-3.5h-9.2l7.6-5.2-9,1.8h0l6.4-6.5-8.4,3.5h-.1l5.1-7.6-7.6,5h-.1l3.5-8.5-6.5,6.5h-.1l1.7-9-5,7.6-.2.2v-9.3l-3.5,8.4h-.1l-1.8-9-1.8,9h-.1l-3.6-8.4v9.1l-5.1-7.6,1.8,9h-.1l-6.5-6.5,3.5,8.5h-.1l-7.6-5,5,7.6h0l-8.5-3.5,6.5,6.5a.1.1,0,0,0-.1.1l-9-1.8,7.6,5.2h-9.2l8.5,3.5h0l-9,1.8h0l9,1.8h0l-8.5,3.5h9.3l-7.7,5.2,9.1-1.8a21.1,21.1,0,0,0,1.8,2.7H369.8s26.2-48.8,56-48.8S481.8,360.5,481.8,360.5Z" transform="translate(-369.8 -297.2)"/><path class="b" d="M423.9,330h0Zm7.3.7v.2l.2-.2Zm-3.6-.7h0Zm10.2,4.2h0Zm4.7,5.7h0Zm2,10.9h0Zm.1-3.8h0Zm-.8,7.4h0Zm-23.6-23.7v0ZM406.9,347h0Zm0,3.7h0Zm.8,3.7Zm6.1-20.2h0Z" transform="translate(-369.8 -297.2)"/><path class="b" d="M434.7,374.1a.8.8,0,0,1-.8.7h-3c-.3,0-.6-.4-.6-.7a.5.5,0,0,1,.6-.6h.7c.1,0,.2,0,.2-1v-3.3c0-1.1-.1-1.1-.2-1.1h-.7a.5.5,0,0,1-.6-.6c0-.4.2-.7.6-.7h1.8c.1,0,.5.1.5.8v5.4c0,.2.1.4.3.4h.2c.1,0,.2-.1.4,0h.4A.8.8,0,0,1,434.7,374.1Z" transform="translate(-369.8 -297.2)"/><path class="b" d="M433.3,365.5a1.1,1.1,0,0,1-1,1,1,1,0,1,1,0-2A1.1,1.1,0,0,1,433.3,365.5Z" transform="translate(-369.8 -297.2)"/><path class="b" d="M442.3,368.9c0,.8-.4,1.7-1.4,1.7a.9.9,0,0,1-.9-.9.7.7,0,0,1,.7-.7h.1v-.2a1,1,0,0,0-1.1-.9c-.8,0-1.7.3-1.7,2.6v2c0,1,.2,1,.3,1h.7a.5.5,0,0,1,.6.6.8.8,0,0,1-.7.7h-3.1c-.3,0-.8-.3-.8-.7s.3-.6.7-.6h.6c.2,0,.3,0,.3-1v-3.3c0-1.1-.1-1.1-.3-1.1h-.8c-.4,0-.7-.2-.7-.6s.5-.7.8-.7h1.7a.5.5,0,0,1,.4.2c.1.1.1.2.1.5a2.5,2.5,0,0,1,2-.9A2.4,2.4,0,0,1,442.3,368.9Z" transform="translate(-369.8 -297.2)"/><path class="b" d="M445.3,365.5a1,1,0,1,1-1-1A1.1,1.1,0,0,1,445.3,365.5Z" transform="translate(-369.8 -297.2)"/><path class="b" d="M446.7,374.1a.8.8,0,0,1-.8.7h-3c-.3,0-.6-.4-.6-.7a.5.5,0,0,1,.6-.6h.7c.1,0,.3,0,.3-1v-3.3c0-1.1-.2-1.1-.3-1.1h-.7a.5.5,0,0,1-.6-.6c0-.4.2-.7.6-.7h1.8c.2,0,.6.1.6.8v5.4c0,.2,0,.4.2.4h.2c.1,0,.2-.1.4,0h.4A.8.8,0,0,1,446.7,374.1Z" transform="translate(-369.8 -297.2)"/><path class="b" d="M456.5,374.1a.7.7,0,0,1-.8.7h-3a.7.7,0,0,1-.8-.7c0-.4.3-.6.7-.6h.6c.2,0,.3-.1.3-1.1v-2.2a3.2,3.2,0,0,0-.2-1.6,1.7,1.7,0,0,0-1.5-.7,1.8,1.8,0,0,0-1.6.8c-.2.2-.4.5-.4,1.9v1.8c0,.9.1,1,.3,1h.7a.5.5,0,0,1,.6.6.7.7,0,0,1-.7.7h-3.1a.7.7,0,0,1-.7-.7.5.5,0,0,1,.6-.6h.7c.2,0,.2-.1.2-1v-3.3c0-1-.1-1.1-.2-1.1h-.7a.5.5,0,0,1-.6-.6c0-.3.3-.7.6-.7h1.7c.4,0,.5.3.5.7a3.4,3.4,0,0,1,2.3-.9,3.1,3.1,0,0,1,2.2.9,2.5,2.5,0,0,1,.7,2.2v2.7c0,.9.1,1.1.3,1.1h.7A.6.6,0,0,1,456.5,374.1Z" transform="translate(-369.8 -297.2)"/><path class="b" d="M462.9,371.4c-.5,0-.6.4-.7.7h0a1.7,1.7,0,0,1-1.8,1.3,1.9,1.9,0,0,1-1.5-.6,2.7,2.7,0,0,1-.7-2h4.7c.8,0,.9-.1.9-.9a3.4,3.4,0,0,0-3.5-3.5,3.2,3.2,0,0,0-2.7,1.4,4.4,4.4,0,0,0-.9,2.9c0,2.4,1.4,4,3.6,4a3.9,3.9,0,0,0,2.4-.9,2.4,2.4,0,0,0,.9-1.8A.7.7,0,0,0,462.9,371.4Zm-2.5-3.6a1.8,1.8,0,0,1,1.9,1.8h-4A2.1,2.1,0,0,1,460.4,367.8Z" transform="translate(-369.8 -297.2)"/><path class="b" d="M470.9,367.7a3.5,3.5,0,0,0-2.8-1.2c-2.2,0-3.6,1.7-3.6,4.2s1.4,4.1,3.6,4.1,3.7-1.7,3.7-4.2A4.6,4.6,0,0,0,470.9,367.7Zm-2.8,5.8c-2,0-2.1-2.2-2.1-2.9a3.8,3.8,0,0,1,.5-1.9,1.8,1.8,0,0,1,1.7-.9,1.7,1.7,0,0,1,1.6.8,3.9,3.9,0,0,1,.5,2C470.3,371.4,470.1,373.5,468.1,373.5Z" transform="translate(-369.8 -297.2)"/><path class="b" d="M479.2,372.1c0,1.7-1.6,2.5-3.1,2.5a3.9,3.9,0,0,1-2-.5c0,.2-.1.4-.2.4a.5.5,0,0,1-.4.3c-.5,0-.7-.3-.7-.8v-2.4a.6.6,0,1,1,1.2,0h0c.1.8.1.9.4,1.1a2.8,2.8,0,0,0,1.8.6,1.8,1.8,0,0,0,1.1-.3,1.2,1.2,0,0,0,.4-.9c0-.7-.7-.9-1.4-1s-3.3-.4-3.3-2.3,1.5-2.5,3-2.5a2.4,2.4,0,0,1,1.5.4l.2-.3a.5.5,0,0,1,.4-.2c.4,0,.7.2.7.6v2.2c0,.4-.3.6-.7.6s-.6-.1-.6-.8,0-.6-.3-.7a2.4,2.4,0,0,0-1.2-.5c-.6,0-1.5.3-1.5,1.1s.2.8,1.6,1S479.2,370.5,479.2,372.1Z" transform="translate(-369.8 -297.2)"/><path class="b" d="M383.8,371.8c0,.4-.3.6-.7.6h-2.9a.7.7,0,0,1-.7-.6.6.6,0,0,1,.6-.6h.7c.1,0,.2-.1.2-1v-1.6a8.1,8.1,0,0,0-.1-1.6,1.4,1.4,0,0,0-1.4-1,2.1,2.1,0,0,0-1.6.7,3.1,3.1,0,0,0-.3,1.7v1.8c0,1,.1,1,.3,1h.6a.6.6,0,0,1,.6.6c0,.4-.3.6-.7.6h-2.9a.7.7,0,0,1-.7-.6.6.6,0,0,1,.6-.6h.6c.2,0,.3-.1.3-1v-5.6c0-1-.2-1-.3-1h-.6a.6.6,0,0,1-.6-.6c0-.4.3-.6.7-.6h1.6c.5,0,.5.4.5.8v2.2a2.9,2.9,0,0,1,2-.7,3.7,3.7,0,0,1,2,.7,2.7,2.7,0,0,1,.7,2v2.7c0,1,.2,1,.3,1h.6A.6.6,0,0,1,383.8,371.8Z" transform="translate(-369.8 -297.2)"/><path class="b" d="M390,366a2.9,2.9,0,0,0-2.6-1.1c-2,0-3.4,1.5-3.4,3.9s1.3,3.8,3.4,3.8,3.5-1.5,3.5-3.9A4.2,4.2,0,0,0,390,366Zm-2.6,5.4c-1.8,0-2-2-2-2.7a3.1,3.1,0,0,1,.5-1.7,1.6,1.6,0,0,1,1.6-.9,1.7,1.7,0,0,1,1.5.7,3.8,3.8,0,0,1,.5,1.9C389.5,369.5,389.3,371.4,387.4,371.4Z" transform="translate(-369.8 -297.2)"/><path class="b" d="M396.7,369.4c0,1.6-.2,3.1-2.3,3.1a1.8,1.8,0,0,1-1.7-.9,3.8,3.8,0,0,1-.3-1.9v-3c0-.4,0-.4-.3-.4s-1,0-1-.6a.7.7,0,0,1,.7-.6h.6v-1.4c0-.3,0-.9.7-.9s.6.6.6.8V365h1.5c.6,0,.8.2.8.6s-.3.6-.9.6h-1.4v3.3c0,1.2.3,1.5.9,1.5s.8-.4.8-1.3v-.4c0-.5.1-1,.7-1S396.7,368.9,396.7,369.4Z" transform="translate(-369.8 -297.2)"/><path class="b" d="M402.9,369.5c-.4,0-.5.4-.6.6h0a1.6,1.6,0,0,1-1.7,1.2,2.5,2.5,0,0,1-1.5-.5,2.8,2.8,0,0,1-.6-1.8H403c.7,0,.8-.2.8-.9a3.1,3.1,0,0,0-3.3-3.3,3.7,3.7,0,0,0-2.6,1.2,4.9,4.9,0,0,0-.8,2.8c0,2.3,1.3,3.7,3.4,3.7a3.6,3.6,0,0,0,2.3-.8,2.7,2.7,0,0,0,.8-1.7A.7.7,0,0,0,402.9,369.5Zm-2.3-3.4a1.6,1.6,0,0,1,1.7,1.7h-3.7A2,2,0,0,1,400.6,366.1Z" transform="translate(-369.8 -297.2)"/><path class="b" d="M408.6,371.8a.7.7,0,0,1-.7.6H405a.7.7,0,0,1-.7-.6.6.6,0,0,1,.6-.6h.6c.2,0,.3-.2.3-1v-5.6c0-1-.2-1-.3-1h-.7a.5.5,0,0,1-.6-.6c0-.3.3-.6.8-.6h1.6c.5,0,.5.4.5.8v6.9c0,1,.2,1,.3,1h.6A.6.6,0,0,1,408.6,371.8Z" transform="translate(-369.8 -297.2)"/><path class="b" d="M438,350.4a12.5,12.5,0,0,0-2.4-7.6,10,10,0,0,0-13-1.1c0-1.1-.6-1.5-1.3-1.5h-5.8a2.1,2.1,0,0,0-2.3,1.9,1.7,1.7,0,0,0,1.8,1.7c.7,0,1.5-.3,2.3-.3s1.6,1.3,1.6,4.4v19.2c0,3.3-.4,4.3-1.6,4.3s-1.6-.3-2.3-.3a1.7,1.7,0,0,0-1.8,1.7,2.1,2.1,0,0,0,2.3,2h10.7a2.1,2.1,0,0,0,2.3-2,1.6,1.6,0,0,0-1.7-1.7c-.8,0-1.5.3-2.4.3s-1.5-.7-1.5-4.2v-7.7a9.1,9.1,0,0,0,5.4,1.7C434.1,361.2,438,356.9,438,350.4Zm-14.7,2.8a12.7,12.7,0,0,1-.3-2.8,16.4,16.4,0,0,1,.2-2.2,10.8,10.8,0,0,1,1-2.7,4.6,4.6,0,0,1,4.4-2.3,4.7,4.7,0,0,1,4.2,2,9.6,9.6,0,0,1,1.3,5.1c0,2.2-.6,7.5-5.7,7.5C425,357.8,423.8,355.3,423.3,353.2Z" transform="translate(-369.8 -297.2)"/></svg>